<?xml version="1.0" encoding="UTF-8" standalone="no"?>
<svg
   xmlns:dc="http://purl.org/dc/elements/1.1/"
   xmlns:cc="http://creativecommons.org/ns#"
   xmlns:rdf="http://www.w3.org/1999/02/22-rdf-syntax-ns#"
   xmlns:svg="http://www.w3.org/2000/svg"
   xmlns="http://www.w3.org/2000/svg"
   xmlns:sodipodi="http://sodipodi.sourceforge.net/DTD/sodipodi-0.dtd"
   xmlns:inkscape="http://www.inkscape.org/namespaces/inkscape"
   version="1.1"
   id="Capa_1"
   x="0px"
   y="0px"
   viewBox="0 0 59.999999 59.999999"
   xml:space="preserve"
   sodipodi:docname="call.svg"
   width="60"
   height="60"
   inkscape:version="1.0.1 (3bc2e813f5, 2020-09-07)"><metadata
   id="metadata41"><rdf:RDF><cc:Work
       rdf:about=""><dc:format>image/svg+xml</dc:format><dc:type
         rdf:resource="http://purl.org/dc/dcmitype/StillImage" /><dc:title></dc:title></cc:Work></rdf:RDF></metadata><defs
   id="defs39" /><sodipodi:namedview
   pagecolor="#ffffff"
   bordercolor="#666666"
   borderopacity="1"
   objecttolerance="10"
   gridtolerance="10"
   guidetolerance="10"
   inkscape:pageopacity="0"
   inkscape:pageshadow="2"
   inkscape:window-width="1366"
   inkscape:window-height="705"
   id="namedview37"
   showgrid="false"
   inkscape:zoom="3.1080347"
   inkscape:cx="10.111042"
   inkscape:cy="45.287925"
   inkscape:window-x="-8"
   inkscape:window-y="-8"
   inkscape:window-maximized="1"
   inkscape:current-layer="Capa_1" />

<g
   id="g6">
</g>
<g
   id="g8">
</g>
<g
   id="g10">
</g>
<g
   id="g12">
</g>
<g
   id="g14">
</g>
<g
   id="g16">
</g>
<g
   id="g18">
</g>
<g
   id="g20">
</g>
<g
   id="g22">
</g>
<g
   id="g24">
</g>
<g
   id="g26">
</g>
<g
   id="g28">
</g>
<g
   id="g30">
</g>
<g
   id="g32">
</g>
<g
   id="g34">
</g>
<g
   id="Page-1"
   fill="none"
   fill-rule="evenodd"
   transform="matrix(0.7034168,0,0,0.7034168,9.6021069,9.6011259)"
   style="fill:#b3b3b3;fill-opacity:1"><g
     id="003---Call"
     fill="#000000"
     fill-rule="nonzero"
     transform="translate(-1)"
     style="fill:#b3b3b3;fill-opacity:1"><path
       id="Shape"
       d="M 25.017,33.983 C 19.481,28.447 18.231,22.911 17.949,20.693 17.8702,20.079717 18.081248,19.464686 18.52,19.029 L 23,14.551 c 0.659014,-0.658607 0.775963,-1.685024 0.282,-2.475 L 16.149,1 C 15.602516,0.12524866 14.480438,-0.19045777 13.558,0.271 L 2.107,5.664 c -0.7459412,0.367308 -1.18469338,1.159854 -1.1,1.987 0.6,5.7 3.085,19.712 16.855,33.483 13.77,13.771 27.78,16.255 33.483,16.855 0.827146,0.08469 1.619692,-0.354059 1.987,-1.1 L 58.725,45.438 C 59.184731,44.517553 58.871114,43.398482 58,42.851 L 46.924,35.72 C 46.134474,35.225521 45.108103,35.341636 44.449,36 l -4.478,4.48 c -0.435686,0.438752 -1.050717,0.649799 -1.664,0.571 -2.218,-0.282 -7.754,-1.532 -13.29,-7.068 z"
       style="fill:#b3b3b3;fill-opacity:1" /><path
       id="path3"
       d="m 47,31 c -1.104569,0 -2,-0.895431 -2,-2 -0.0094,-8.280388 -6.719612,-14.990631 -15,-15 -1.10457,0 -2,-0.89543 -2,-2 0,-1.104569 0.89543,-2 2,-2 10.488613,0.01157 18.988427,8.511387 19,19 0,1.104569 -0.895431,2 -2,2 z"
       style="fill:#b3b3b3;fill-opacity:1" /><path
       id="path5"
       d="M 57,31 C 55.895431,31 55,30.104569 55,29 54.984569,15.199278 43.800722,4.0154309 30,4 28.89543,4 28,3.1045695 28,2 28,0.8954305 28.89543,0 30,0 46.008947,0.01763587 58.982364,12.991053 59,29 59,29.530433 58.789286,30.039141 58.414214,30.414214 58.039141,30.789286 57.530433,31 57,31 Z"
       style="fill:#b3b3b3;fill-opacity:1" /></g></g></svg>
